<svg width="60" height="60" viewBox="0 0 60 60" fill="none" xmlns="http://www.w3.org/2000/svg">
<path d="M52.05 5.625V33.3188C52.05 33.816 51.8525 34.2929 51.5008 34.6446C51.1492 34.9962 50.6723 35.1938 50.175 35.1938H40.6125C40.6411 34.788 40.6411 34.3808 40.6125 33.975C40.6193 33.4151 40.569 32.856 40.4625 32.3063C40.078 29.7845 38.8028 27.484 36.8678 25.8217C34.9329 24.1595 32.4665 23.2455 29.9156 23.2455C27.3647 23.2455 24.8983 24.1595 22.9634 25.8217C21.0285 27.484 19.7532 29.7845 19.3687 32.3063C19.2622 32.856 19.212 33.4151 19.2188 33.975C19.1902 34.3808 19.1902 34.788 19.2188 35.1938H9.84375C9.34647 35.1938 8.86956 34.9962 8.51793 34.6446C8.16629 34.2929 7.96875 33.816 7.96875 33.3188V5.625C7.96875 5.12772 8.16629 4.65081 8.51793 4.29917C8.86956 3.94754 9.34647 3.75 9.84375 3.75H50.175C50.6723 3.75 51.1492 3.94754 51.5008 4.29917C51.8525 4.65081 52.05 5.12772 52.05 5.625Z" fill="white"/>
<path d="M19.3687 35.1937C19.3801 35.3901 19.4115 35.5849 19.4625 35.7749H10.0875C9.75379 35.7875 9.42095 35.7329 9.10873 35.6144C8.79651 35.4959 8.51128 35.3158 8.26996 35.085C8.02863 34.8542 7.83612 34.5772 7.70386 34.2706C7.5716 33.9639 7.50227 33.6338 7.5 33.2999V32.3062H19.3687C19.2622 32.8559 19.212 33.415 19.2187 33.9749C19.2399 34.3842 19.29 34.7915 19.3687 35.1937Z" fill="#62E2BB"/>
<path d="M52.4999 5.73755V33.2813C52.4999 33.6104 52.4348 33.9362 52.3083 34.24C52.1818 34.5437 51.9964 34.8195 51.7629 35.0513C51.5293 35.2831 51.2522 35.4664 50.9475 35.5906C50.6428 35.7148 50.3165 35.7775 49.9874 35.775H40.6124C40.6634 35.585 40.6948 35.3902 40.7062 35.1938C40.7347 34.788 40.7347 34.3808 40.7062 33.975C40.7129 33.4151 40.6627 32.856 40.5562 32.3063H44.7187C45.0468 32.3088 45.3722 32.246 45.6759 32.1216C45.9796 31.9971 46.2555 31.8135 46.4876 31.5815C46.7196 31.3494 46.9032 31.0735 47.0277 30.7698C47.1521 30.4661 47.2149 30.1407 47.2124 29.8125V3.2438H49.9312C50.2642 3.23633 50.5955 3.29518 50.9056 3.41692C51.2157 3.53867 51.4985 3.72087 51.7376 3.95294C51.9766 4.185 52.1671 4.46229 52.298 4.76867C52.4289 5.07505 52.4975 5.40439 52.4999 5.73755Z" fill="#62E2BB"/>
<path d="M49.9125 3.2438H10.0687C9.73567 3.23633 9.40444 3.29518 9.09432 3.41692C8.7842 3.53867 8.50139 3.72087 8.26234 3.95294C8.0233 4.185 7.83279 4.46229 7.70192 4.76867C7.57104 5.07505 7.5024 5.40439 7.5 5.73755V33.3C7.50491 33.9599 7.76922 34.5914 8.23582 35.058C8.70243 35.5246 9.33388 35.7889 9.99375 35.7938H19.3687C19.2951 35.4229 19.2512 35.0467 19.2375 34.6688H10.0687C9.70573 34.6688 9.35759 34.5246 9.1009 34.2679C8.84421 34.0112 8.7 33.6631 8.7 33.3V5.73755C8.7 5.37453 8.84421 5.02639 9.1009 4.76969C9.35759 4.513 9.70573 4.3688 10.0687 4.3688H49.9125C50.2755 4.3688 50.6237 4.513 50.8804 4.76969C51.137 5.02639 51.2812 5.37453 51.2812 5.73755V33.3C51.2812 33.4798 51.2458 33.6578 51.1771 33.8238C51.1083 33.9899 51.0075 34.1408 50.8804 34.2679C50.7533 34.395 50.6024 34.4958 50.4363 34.5646C50.2702 34.6334 50.0922 34.6688 49.9125 34.6688H40.65C40.6363 35.0467 40.5924 35.4229 40.5188 35.7938H49.8938C50.2299 35.8064 50.5652 35.7513 50.8797 35.6318C51.1942 35.5124 51.4815 35.331 51.7246 35.0984C51.9676 34.8658 52.1615 34.5868 52.2947 34.2779C52.4279 33.969 52.4977 33.6364 52.5 33.3V5.73755C52.4977 5.40278 52.4284 5.07185 52.2964 4.76421C52.1643 4.45657 51.9721 4.17842 51.7311 3.9461C51.49 3.71378 51.205 3.53198 50.8927 3.41138C50.5804 3.29077 50.2471 3.2338 49.9125 3.2438Z" fill="#636363"/>
<path d="M41.9624 9.9563H40.8374V26.6625H41.9624V9.9563Z" fill="#636363"/>
<path d="M33.1314 14.55V23.7375C32.77 23.6215 32.4001 23.5337 32.0251 23.475V14.55H33.1314Z" fill="#636363"/>
<path d="M24.4688 19.7625V24.8062C24.0752 25.0342 23.6992 25.2912 23.3438 25.575V19.7625H24.4688Z" fill="#636363"/>
<path d="M15.9187 23.2124H14.7937V26.6437H15.9187V23.2124Z" fill="#636363"/>
<path d="M43.9688 56.2501C43.9698 52.5136 42.5089 48.925 39.8986 46.2515C37.2882 43.5781 33.7355 42.032 30 41.9438C26.2645 42.032 22.7118 43.5781 20.1014 46.2515C17.4911 48.925 16.0302 52.5136 16.0313 56.2501H43.9688Z" fill="white"/>
<path d="M43.9688 56.8501H16.0313C15.9574 56.8501 15.8842 56.8355 15.816 56.8073C15.7477 56.779 15.6857 56.7376 15.6335 56.6853C15.5813 56.6331 15.5398 56.5711 15.5116 56.5029C15.4833 56.4346 15.4688 56.3615 15.4688 56.2876C15.4911 52.4055 17.0177 48.6833 19.7277 45.9034C22.4376 43.1235 26.1197 41.5026 30 41.3813C33.8964 41.5032 37.5924 43.1371 40.3049 45.9371C43.0173 48.737 44.5332 52.483 44.5312 56.3813C44.5089 56.5138 44.4399 56.6338 44.3367 56.7198C44.2335 56.8058 44.103 56.852 43.9688 56.8501ZM16.6125 55.7251H43.3875C43.2276 52.2506 41.758 48.9654 39.2743 46.5304C36.7906 44.0955 33.477 42.6912 30 42.6001C26.523 42.6912 23.2094 44.0955 20.7257 46.5304C18.242 48.9654 16.7724 52.2506 16.6125 55.7251Z" fill="#636363"/>
<path d="M31.875 54.9L30 56.7562L28.1438 54.9L29.0625 40.2188H30.9188L31.875 54.9Z" fill="#62E2BB"/>
<path d="M30 41.9625C34.4113 41.9625 37.9875 38.3864 37.9875 33.9751C37.9875 29.5637 34.4113 25.9875 30 25.9875C25.5886 25.9875 22.0125 29.5637 22.0125 33.9751C22.0125 38.3864 25.5886 41.9625 30 41.9625Z" fill="white"/>
<path d="M27.75 41.6062C28.4785 41.8324 29.2372 41.9462 30 41.9437C31.0802 41.996 32.1599 41.8285 33.1734 41.4512C34.187 41.0739 35.1134 40.4947 35.8964 39.7487C36.6795 39.0027 37.3029 38.1055 37.7288 37.1114C38.1548 36.1173 38.3744 35.047 38.3744 33.9655C38.3744 32.884 38.1548 31.8138 37.7288 30.8197C37.3029 29.8256 36.6795 28.9283 35.8964 28.1823C35.1134 27.4364 34.187 26.8572 33.1734 26.4799C32.1599 26.1026 31.0802 25.935 30 25.9874C29.2372 25.9848 28.4785 26.0986 27.75 26.3249C29.4083 26.8016 30.8665 27.8048 31.9045 29.1831C32.9424 30.5615 33.5038 32.2401 33.5038 33.9655C33.5038 35.691 32.9424 37.3696 31.9045 38.7479C30.8665 40.1263 29.4083 41.1295 27.75 41.6062Z" fill="#62E2BB"/>
<path d="M30 27.1125C31.3572 27.1125 32.684 27.515 33.8126 28.2691C34.9411 29.0232 35.8207 30.0949 36.3401 31.3489C36.8595 32.6028 36.9954 33.9827 36.7306 35.3139C36.4658 36.6451 35.8122 37.8678 34.8525 38.8276C33.8927 39.7873 32.67 40.4409 31.3388 40.7057C30.0076 40.9705 28.6277 40.8346 27.3738 40.3152C26.1198 39.7958 25.0481 38.9162 24.294 37.7877C23.5399 36.6591 23.1375 35.3323 23.1375 33.9751C23.1375 32.155 23.8605 30.4095 25.1474 29.1225C26.4344 27.8356 28.1799 27.1125 30 27.1125ZM30 25.9875C28.4202 25.9875 26.8759 26.456 25.5623 27.3337C24.2488 28.2114 23.225 29.4588 22.6205 30.9184C22.0159 32.3779 21.8577 33.9839 22.1659 35.5333C22.4741 37.0828 23.2349 38.506 24.3519 39.6231C25.469 40.7401 26.8922 41.5009 28.4417 41.8091C29.9911 42.1173 31.5971 41.9591 33.0566 41.3545C34.5162 40.75 35.7636 39.7262 36.6413 38.4127C37.519 37.0991 37.9875 35.5548 37.9875 33.9751C37.9875 31.8566 37.1459 29.825 35.648 28.327C34.15 26.8291 32.1184 25.9875 30 25.9875Z" fill="#636363"/>
</svg>
