<svg width="52" height="52" viewBox="0 0 52 52" fill="none" xmlns="http://www.w3.org/2000/svg">
<path d="M31.834 3.73755C31.2053 3.76917 30.5881 3.91798 30.014 4.1763L29.3803 4.4363C28.5233 4.86219 27.5893 5.11089 26.634 5.16755C26.241 5.17012 25.8506 5.10413 25.4803 4.97255C24.0987 4.3794 22.6257 4.02764 21.1253 3.93255C20.0105 3.93127 18.9387 4.36232 18.1353 5.13505L22.1653 11.2288L22.4903 11.7H29.429L29.5915 11.4075L29.689 11.2125L33.394 4.32255C32.9482 3.9688 32.4025 3.76415 31.834 3.73755Z" fill="white"/>
<path d="M41.1613 31.9799C41.17 33.3678 40.6667 34.7101 39.7475 35.7499C39.5739 35.7154 39.4049 35.6609 39.2438 35.5874C38.6501 35.3509 38.1007 35.0158 37.6188 34.5962C37.0999 34.0217 36.4689 33.5595 35.7646 33.2382C35.0604 32.9168 34.2978 32.743 33.5238 32.7274C29.7213 32.7274 29.7213 35.9774 25.935 35.9774C22.1488 35.9774 22.1488 32.7274 18.3625 32.7274C15.3563 32.7274 14.7388 34.7587 12.7075 35.5874C12.5456 35.6586 12.3768 35.7131 12.2038 35.7499C11.2912 34.7062 10.7888 33.3664 10.79 31.9799C10.8699 26.4479 12.9278 21.1272 16.5913 16.9812C18.1869 15.0561 20.0155 13.3367 22.035 11.8625L22.2625 11.7H29.7375L29.9325 11.83L30.1925 12.025C32.1111 13.4345 33.8517 15.0715 35.3763 16.9C39.0495 21.0709 41.1024 26.4224 41.1613 31.9799Z" fill="white"/>
<path d="M41.1613 31.98C41.1701 33.3678 40.6667 34.7101 39.7476 35.75C39.5739 35.7155 39.4049 35.661 39.2438 35.5875C38.6502 35.351 38.1008 35.0159 37.6188 34.5963C38.0432 33.79 38.2609 32.8911 38.2526 31.98C38.1834 26.4547 36.1434 21.1358 32.5001 16.9813C31.0304 15.1696 29.3564 13.5337 27.5113 12.1063L26.8613 11.635H29.7376L29.9326 11.765L30.1926 11.96C32.1111 13.3696 33.8517 15.0065 35.3763 16.835C39.0641 21.0229 41.118 26.4001 41.1613 31.98Z" fill="#62E2BB"/>
<path d="M33.4425 4.27382L29.4612 11.6838L27.3975 11.4726L29.3312 4.43632C30.1004 4.06042 30.9321 3.82908 31.785 3.75382C32.3807 3.73199 32.9659 3.91558 33.4425 4.27382Z" fill="#62E2BB"/>
<path d="M33.7189 3.88375C33.1765 3.47255 32.5145 3.24998 31.8339 3.25C30.9345 3.32992 30.0581 3.57797 29.2502 3.98125C28.1575 4.58848 26.8835 4.78447 25.6589 4.53375C22.1002 3.20125 20.0364 2.90875 17.9077 4.76125C17.8175 4.83724 17.758 4.94332 17.74 5.05984C17.7221 5.17636 17.747 5.29543 17.8101 5.395L21.8239 11.4563L22.1002 11.8625V11.96C22.1431 12.028 22.2034 12.0833 22.2748 12.1205C22.3461 12.1576 22.4261 12.1751 22.5064 12.1713H29.4452C29.5247 12.1706 29.6031 12.1512 29.6737 12.1145C29.7443 12.0777 29.8052 12.0248 29.8514 11.96V11.8625L30.1602 11.375L30.4527 10.8388L33.8652 4.485C33.9111 4.38279 33.9217 4.26817 33.8952 4.15927C33.8687 4.05038 33.8067 3.95342 33.7189 3.88375ZM29.1527 11.2125H22.7502L18.8014 5.2325C20.5239 3.94875 22.3114 4.355 25.3014 5.44375C25.7219 5.60198 26.1685 5.67918 26.6177 5.67125C27.529 5.6406 28.4247 5.42498 29.2502 5.0375L29.5752 4.875C30.281 4.51939 31.047 4.29893 31.8339 4.225C32.167 4.2242 32.4955 4.30215 32.7927 4.4525L29.1527 11.2125Z" fill="#636363"/>
<path d="M35.75 16.6726C34.2624 14.8607 32.5722 13.225 30.7125 11.7976L30.16 11.3751H29.9975C29.9134 11.3453 29.8216 11.3453 29.7375 11.3751H22.1812C22.1179 11.354 22.0495 11.354 21.9862 11.3751L21.7587 11.5376C19.7172 13.0149 17.8668 14.7397 16.25 16.6726C12.5115 20.9037 10.413 26.3345 10.335 31.9801C10.3318 33.395 10.8071 34.7694 11.6837 35.8801C11.877 35.8551 12.0675 35.8116 12.2525 35.7501C12.4255 35.7132 12.5943 35.6587 12.7562 35.5876C11.8482 34.608 11.3534 33.3156 11.375 31.9801C11.4763 26.5848 13.4921 21.4013 17.0625 17.3551C18.6253 15.409 20.427 13.6674 22.425 12.1713H29.575C31.5926 13.642 33.4163 15.3619 35.0025 17.2901C38.5669 21.3386 40.5769 26.5219 40.6737 31.9151C40.6918 33.2544 40.1775 34.546 39.2437 35.5063C39.4048 35.5798 39.5738 35.6343 39.7475 35.6688L40.2837 35.7826C41.1637 34.6979 41.6454 33.3444 41.6487 31.9476C41.5646 26.3159 39.4728 20.8991 35.75 16.6726Z" fill="#636363"/>
<path d="M29.9326 12.1225L29.5264 11.245C29.9164 11.0663 33.3939 9.5225 35.2626 10.53L34.7914 11.375C33.5726 10.7413 30.8751 11.7 29.9326 12.1225Z" fill="#636363"/>
<path d="M29.2336 18.4113H22.7661V19.3863H29.2336V18.4113Z" fill="#636363"/>
<path d="M29.2336 21.0112H22.7661V21.9862H29.2336V21.0112Z" fill="#636363"/>
<path d="M26.8775 29.5587L22.9937 24.3749C22.9465 24.2965 22.9215 24.2066 22.9215 24.1149C22.9215 24.0233 22.9465 23.9334 22.9937 23.8549C23.0342 23.7741 23.0971 23.7066 23.1749 23.6605C23.2527 23.6144 23.3421 23.5916 23.4325 23.5949H24.765C25.2828 23.549 25.7647 23.3109 26.1157 22.9274C26.4667 22.5439 26.6613 22.0429 26.6613 21.5231C26.6613 21.0032 26.4667 20.5022 26.1157 20.1187C25.7647 19.7352 25.2828 19.4971 24.765 19.4512H22.75V18.4762H24.7C25.4696 18.5324 26.1895 18.8779 26.7149 19.4431C27.2403 20.0083 27.5323 20.7514 27.5323 21.5231C27.5323 22.2948 27.2403 23.0379 26.7149 23.6031C26.1895 24.1683 25.4696 24.5137 24.7 24.5699H24.375L27.625 28.9899L26.8775 29.5587Z" fill="#636363"/>
<path d="M41.1613 36.4488C40.3927 36.451 39.6317 36.2965 38.9249 35.9947C38.218 35.693 37.58 35.2503 37.05 34.6938C36.6021 34.2217 36.0628 33.8458 35.465 33.5889C34.8671 33.332 34.2232 33.1996 33.5725 33.1996C32.9218 33.1996 32.2779 33.332 31.68 33.5889C31.0822 33.8458 30.5429 34.2217 30.095 34.6938C29.564 35.2492 28.9259 35.6914 28.2193 35.9934C27.5127 36.2955 26.7522 36.4512 25.9837 36.4512C25.2153 36.4512 24.4548 36.2955 23.7482 35.9934C23.0416 35.6914 22.4035 35.2492 21.8725 34.6938C21.426 34.2222 20.8881 33.8465 20.2916 33.5898C19.6951 33.3331 19.0525 33.2008 18.4031 33.2008C17.7537 33.2008 17.1111 33.3331 16.5146 33.5898C15.9181 33.8465 15.3802 34.2222 14.9337 34.6938C14.4053 35.2362 13.7736 35.6674 13.0759 35.9618C12.3782 36.2562 11.6285 36.4078 10.8713 36.4078C10.114 36.4078 9.36433 36.2562 8.6666 35.9618C7.96886 35.6674 7.33716 35.2362 6.80875 34.6938C6.35407 34.2083 5.80209 33.8242 5.18886 33.5666C4.57564 33.309 3.91497 33.1836 3.25 33.1988V32.2238C4.01712 32.2213 4.7768 32.3741 5.48333 32.6729C6.18987 32.9717 6.82865 33.4104 7.36125 33.9625C7.80522 34.4383 8.34232 34.8178 8.93916 35.0772C9.53601 35.3366 10.1798 35.4705 10.8306 35.4705C11.4814 35.4705 12.1252 35.3366 12.7221 35.0772C13.3189 34.8178 13.856 34.4383 14.3 33.9625C14.8307 33.424 15.4631 32.9964 16.1605 32.7045C16.858 32.4127 17.6065 32.2624 18.3625 32.2624C19.1185 32.2624 19.867 32.4127 20.5645 32.7045C21.2619 32.9964 21.8943 33.424 22.425 33.9625C22.8704 34.4388 23.4089 34.8185 24.0071 35.0781C24.6053 35.3377 25.2504 35.4716 25.9025 35.4716C26.5546 35.4716 27.1997 35.3377 27.7979 35.0781C28.3961 34.8185 28.9346 34.4388 29.38 33.9625C29.9145 33.4131 30.5537 32.9765 31.2599 32.6783C31.966 32.3801 32.7247 32.2265 33.4913 32.2265C34.2578 32.2265 35.0165 32.3801 35.7226 32.6783C36.4287 32.9765 37.068 33.4131 37.6025 33.9625C38.0483 34.4384 38.5868 34.818 39.1849 35.0779C39.783 35.3378 40.4279 35.4725 41.08 35.4738C41.7327 35.4764 42.3788 35.3435 42.9774 35.0833C43.5761 34.8232 44.1141 34.4415 44.5575 33.9625C45.0995 33.4004 45.7515 32.9559 46.4728 32.6568C47.1941 32.3577 47.9692 32.2102 48.75 32.2238V33.1988C48.0989 33.1969 47.4544 33.3287 46.8563 33.5858C46.2582 33.843 45.7191 34.22 45.2725 34.6938C44.7413 35.2488 44.1031 35.6905 43.3965 35.9921C42.6899 36.2937 41.9295 36.4491 41.1613 36.4488Z" fill="#636363"/>
<path d="M41.1613 42.5425C40.3944 42.543 39.6353 42.3894 38.929 42.0907C38.2227 41.792 37.5837 41.3543 37.05 40.8037C36.6046 40.3274 36.0661 39.9477 35.4679 39.6881C34.8697 39.4286 34.2246 39.2946 33.5725 39.2946C32.9204 39.2946 32.2753 39.4286 31.6771 39.6881C31.0789 39.9477 30.5404 40.3274 30.095 40.8037C29.5605 41.3531 28.9213 41.7897 28.2151 42.0879C27.509 42.3861 26.7503 42.5397 25.9837 42.5397C25.2172 42.5397 24.4585 42.3861 23.7524 42.0879C23.0462 41.7897 22.407 41.3531 21.8725 40.8037C21.4285 40.3279 20.8914 39.9485 20.2946 39.689C19.6977 39.4296 19.0539 39.2958 18.4031 39.2958C17.7523 39.2958 17.1085 39.4296 16.5117 39.689C15.9148 39.9485 15.3777 40.3279 14.9337 40.8037C14.4031 41.3422 13.7706 41.7698 13.0732 42.0617C12.3758 42.3535 11.6273 42.5038 10.8713 42.5038C10.1152 42.5038 9.36672 42.3535 8.6693 42.0617C7.97187 41.7698 7.33943 41.3422 6.80875 40.8037C6.35488 40.3161 5.80343 39.9296 5.19028 39.6692C4.57713 39.4088 3.91603 39.2804 3.25 39.2925V38.3175C4.01656 38.3187 4.77514 38.4732 5.48115 38.7718C6.18717 39.0704 6.82639 39.5071 7.36125 40.0562C7.80522 40.532 8.34232 40.9115 8.93916 41.1709C9.53601 41.4303 10.1798 41.5642 10.8306 41.5642C11.4814 41.5642 12.1252 41.4303 12.7221 41.1709C13.3189 40.9115 13.856 40.532 14.3 40.0562C14.8307 39.5177 15.4631 39.0901 16.1605 38.7982C16.858 38.5064 17.6065 38.3561 18.3625 38.3561C19.1185 38.3561 19.867 38.5064 20.5645 38.7982C21.2619 39.0901 21.8943 39.5177 22.425 40.0562C22.8704 40.5325 23.4089 40.9122 24.0071 41.1718C24.6053 41.4314 25.2504 41.5653 25.9025 41.5653C26.5546 41.5653 27.1997 41.4314 27.7979 41.1718C28.3961 40.9122 28.9346 40.5325 29.38 40.0562C29.9145 39.5068 30.5537 39.0702 31.2599 38.772C31.966 38.4739 32.7247 38.3202 33.4913 38.3202C34.2578 38.3202 35.0165 38.4739 35.7226 38.772C36.4287 39.0702 37.068 39.5068 37.6025 40.0562C38.0479 40.5325 38.5864 40.9122 39.1846 41.1718C39.7828 41.4314 40.4279 41.5653 41.08 41.5653C41.7321 41.5653 42.3772 41.4314 42.9754 41.1718C43.5736 40.9122 44.1121 40.5325 44.5575 40.0562C45.1019 39.4972 45.7543 39.0548 46.475 38.7559C47.1958 38.457 47.9698 38.3078 48.75 38.3175V39.2925C48.0973 39.2898 47.4512 39.4228 46.8526 39.6829C46.2539 39.9431 45.7159 40.3247 45.2725 40.8037C44.7376 41.3528 44.0984 41.7895 43.3924 42.0881C42.6864 42.3867 41.9278 42.5412 41.1613 42.5425Z" fill="#636363"/>
<path d="M41.1613 48.6524C40.3927 48.6547 39.6317 48.5002 38.9249 48.1984C38.218 47.8967 37.58 47.454 37.05 46.8974C36.6021 46.4254 36.0628 46.0495 35.465 45.7926C34.8671 45.5357 34.2232 45.4032 33.5725 45.4032C32.9218 45.4032 32.2779 45.5357 31.68 45.7926C31.0822 46.0495 30.5429 46.4254 30.095 46.8974C29.564 47.4529 28.9259 47.8951 28.2193 48.1971C27.5127 48.4992 26.7522 48.6549 25.9837 48.6549C25.2153 48.6549 24.4548 48.4992 23.7482 48.1971C23.0416 47.8951 22.4035 47.4529 21.8725 46.8974C21.426 46.4259 20.8881 46.0502 20.2916 45.7935C19.6951 45.5368 19.0525 45.4044 18.4031 45.4044C17.7537 45.4044 17.1111 45.5368 16.5146 45.7935C15.9181 46.0502 15.3802 46.4259 14.9337 46.8974C14.4053 47.4399 13.7736 47.8711 13.0759 48.1655C12.3782 48.4599 11.6285 48.6115 10.8713 48.6115C10.114 48.6115 9.36433 48.4599 8.6666 48.1655C7.96886 47.8711 7.33716 47.4399 6.80875 46.8974C6.34858 46.4191 5.79558 46.0398 5.18364 45.7827C4.5717 45.5256 3.91371 45.3962 3.25 45.4024V44.4274C4.01656 44.4287 4.77514 44.5832 5.48115 44.8818C6.18717 45.1804 6.82639 45.6171 7.36125 46.1662C7.80522 46.642 8.34232 47.0214 8.93916 47.2809C9.53601 47.5403 10.1798 47.6742 10.8306 47.6742C11.4814 47.6742 12.1252 47.5403 12.7221 47.2809C13.3189 47.0214 13.856 46.642 14.3 46.1662C14.8307 45.6277 15.4631 45.2001 16.1605 44.9082C16.858 44.6164 17.6065 44.4661 18.3625 44.4661C19.1185 44.4661 19.867 44.6164 20.5645 44.9082C21.2619 45.2001 21.8943 45.6277 22.425 46.1662C22.8704 46.6425 23.4089 47.0222 24.0071 47.2818C24.6053 47.5413 25.2504 47.6753 25.9025 47.6753C26.5546 47.6753 27.1997 47.5413 27.7979 47.2818C28.3961 47.0222 28.9346 46.6425 29.38 46.1662C29.9145 45.6168 30.5537 45.1802 31.2599 44.882C31.966 44.5838 32.7247 44.4302 33.4913 44.4302C34.2578 44.4302 35.0165 44.5838 35.7226 44.882C36.4287 45.1802 37.068 45.6168 37.6025 46.1662C38.0479 46.6425 38.5864 47.0222 39.1846 47.2818C39.7828 47.5413 40.4279 47.6753 41.08 47.6753C41.7321 47.6753 42.3772 47.5413 42.9754 47.2818C43.5736 47.0222 44.1121 46.6425 44.5575 46.1662C45.1019 45.6072 45.7543 45.1648 46.475 44.8659C47.1958 44.5669 47.9698 44.4178 48.75 44.4274V45.4024C48.0989 45.4006 47.4544 45.5324 46.8563 45.7895C46.2582 46.0467 45.7191 46.4237 45.2725 46.8974C44.7413 47.4525 44.1031 47.8942 43.3965 48.1958C42.6899 48.4974 41.9295 48.6528 41.1613 48.6524Z" fill="#636363"/>
</svg>
