<svg width="60" height="60" viewBox="0 0 60 60" fill="none" xmlns="http://www.w3.org/2000/svg">
<path d="M50.6438 28.575H9.375V49.3312H50.6438V28.575Z" fill="white"/>
<path d="M32.4187 16.3875H25.3687V25.0875H32.4187V16.3875Z" fill="white"/>
<path d="M20.2126 20.1375H13.1626V25.0687H20.2126V20.1375Z" fill="white"/>
<path d="M41.1188 6.44995L35.3438 12.675H37.5937V25.0875H44.6625V12.675H46.8375L41.1188 6.44995Z" fill="white"/>
<path d="M32.4375 16.3875H30.5625V25.0875H32.4375V16.3875Z" fill="#62E2BB"/>
<path d="M20.2124 20.1375H18.3374V25.0875H20.2124V20.1375Z" fill="#62E2BB"/>
<path d="M44.6626 12.675H42.7876V25.0875H44.6626V12.675Z" fill="#62E2BB"/>
<path d="M46.8561 12.675H44.9811L40.1812 7.46245L41.1187 6.44995L46.8561 12.675Z" fill="#62E2BB"/>
<path d="M50.6248 49.8937H9.37485C9.30027 49.8963 9.22596 49.8836 9.15653 49.8562C9.0871 49.8289 9.02404 49.7875 8.97127 49.7348C8.91851 49.682 8.87717 49.619 8.84983 49.5495C8.82249 49.4801 8.80973 49.4058 8.81235 49.3312V28.575C8.81235 28.5011 8.8269 28.4279 8.85516 28.3597C8.88343 28.2914 8.92487 28.2294 8.9771 28.1772C9.02933 28.125 9.09134 28.0835 9.15959 28.0553C9.22783 28.027 9.30098 28.0125 9.37485 28.0125H50.6248C50.6987 28.0125 50.7719 28.027 50.8401 28.0553C50.9084 28.0835 50.9704 28.125 51.0226 28.1772C51.0748 28.2294 51.1163 28.2914 51.1445 28.3597C51.1728 28.4279 51.1873 28.5011 51.1873 28.575V49.3312C51.19 49.4058 51.1772 49.4801 51.1499 49.5495C51.1225 49.619 51.0812 49.682 51.0284 49.7348C50.9757 49.7875 50.9126 49.8289 50.8432 49.8562C50.7737 49.8836 50.6994 49.8963 50.6248 49.8937ZM9.93735 48.75H50.0624V29.1375H9.93735V48.75Z" fill="#636363"/>
<path d="M16.875 49.3313H9.375V41.8313C11.3641 41.8313 13.2718 42.6215 14.6783 44.028C16.0848 45.4345 16.875 47.3422 16.875 49.3313Z" fill="#62E2BB"/>
<path d="M16.8748 49.8938H9.37485C9.30027 49.8964 9.22596 49.8836 9.15653 49.8563C9.0871 49.8289 9.02404 49.7876 8.97127 49.7348C8.91851 49.6821 8.87717 49.619 8.84983 49.5496C8.82249 49.4801 8.80973 49.4058 8.81235 49.3313V41.8312C8.80983 41.7558 8.82252 41.6807 8.84966 41.6102C8.8768 41.5398 8.91784 41.4756 8.97032 41.4213C9.02281 41.3671 9.08567 41.324 9.15517 41.2945C9.22466 41.2651 9.29937 41.25 9.37485 41.25C11.4967 41.255 13.5303 42.1001 15.0307 43.6004C16.531 45.1008 17.3761 47.1344 17.3811 49.2563C17.3916 49.3316 17.3866 49.4084 17.3666 49.4818C17.3465 49.5552 17.3118 49.6238 17.2644 49.6834C17.2171 49.743 17.1582 49.7923 17.0912 49.8285C17.0242 49.8647 16.9506 49.8869 16.8748 49.8938ZM9.93735 48.75H16.2186C16.0789 47.131 15.3722 45.6132 14.2232 44.4642C13.0741 43.3151 11.5564 42.6085 9.93735 42.4687V48.75Z" fill="#636363"/>
<path d="M16.875 28.575C16.875 29.5599 16.681 30.5351 16.3041 31.4451C15.9272 32.355 15.3747 33.1818 14.6783 33.8783C13.9819 34.5747 13.1551 35.1271 12.2451 35.5041C11.3352 35.881 10.3599 36.075 9.375 36.075V28.575H16.875Z" fill="#62E2BB"/>
<path d="M9.37485 36.5813C9.30027 36.5839 9.22596 36.5712 9.15653 36.5438C9.0871 36.5165 9.02404 36.4751 8.97127 36.4224C8.91851 36.3696 8.87717 36.3065 8.84983 36.2371C8.82249 36.1677 8.80973 36.0934 8.81235 36.0188V28.5188C8.81235 28.3696 8.87161 28.2265 8.9771 28.1211C9.08259 28.0156 9.22566 27.9563 9.37485 27.9563H16.8748C17.0225 27.961 17.1629 28.0218 17.2674 28.1263C17.3719 28.2307 17.4327 28.3711 17.4373 28.5188C17.4448 29.5797 17.2414 30.6314 16.8389 31.613C16.4363 32.5946 15.8427 33.4864 15.0926 34.2365C14.3424 34.9867 13.4506 35.5803 12.4691 35.9828C11.4875 36.3853 10.4357 36.5888 9.37485 36.5813ZM9.93735 29.0813V35.4375C11.562 35.3045 13.0862 34.5976 14.2371 33.4432C15.388 32.2889 16.0904 30.7626 16.2186 29.1375L9.93735 29.0813Z" fill="#636363"/>
<path d="M50.625 28.575V36.075C48.6359 36.075 46.7282 35.2848 45.3217 33.8783C43.9152 32.4717 43.125 30.5641 43.125 28.575H50.625Z" fill="#62E2BB"/>
<path d="M50.6249 36.5812C48.5015 36.5812 46.4651 35.7377 44.9636 34.2362C43.4622 32.7348 42.6187 30.6983 42.6187 28.575C42.6233 28.4273 42.6841 28.2869 42.7886 28.1824C42.8931 28.0779 43.0335 28.0171 43.1812 28.0125H50.6811C50.8303 28.0125 50.9734 28.0717 51.0789 28.1772C51.1844 28.2827 51.2436 28.4258 51.2436 28.575V36.075C51.2392 36.1499 51.2193 36.2232 51.1851 36.2901C51.151 36.357 51.1033 36.4161 51.0452 36.4636C50.987 36.5112 50.9197 36.5462 50.8473 36.5664C50.775 36.5867 50.6993 36.5917 50.6249 36.5812ZM43.7812 29.0812C43.8965 30.7162 44.5933 32.256 45.7454 33.4218C46.8975 34.5877 48.4289 35.3027 50.0624 35.4375V29.1375L43.7812 29.0812Z" fill="#636363"/>
<path d="M50.625 41.8875V49.3875H43.125C43.125 47.3983 43.9152 45.4907 45.3217 44.0842C46.7282 42.6776 48.6359 41.8875 50.625 41.8875Z" fill="#62E2BB"/>
<path d="M50.6249 49.8938H43.125C42.9758 49.8938 42.8327 49.8346 42.7272 49.7291C42.6217 49.6236 42.5625 49.4805 42.5625 49.3313C42.555 48.2696 42.7583 47.2169 43.1606 46.2343C43.5629 45.2517 44.1562 44.3587 44.9061 43.6071C45.656 42.8554 46.5477 42.26 47.5293 41.8554C48.511 41.4509 49.5632 41.2451 50.6249 41.2501C50.7741 41.2501 50.9172 41.3094 51.0227 41.4148C51.1282 41.5203 51.1874 41.6634 51.1874 41.8126V49.3126C51.1928 49.3887 51.182 49.4651 51.1559 49.5367C51.1297 49.6084 51.0888 49.6738 51.0358 49.7286C50.9827 49.7834 50.9187 49.8265 50.8479 49.8549C50.7772 49.8834 50.7012 49.8967 50.6249 49.8938ZM43.7812 48.7501H50.0624V42.4688C48.4434 42.6085 46.9257 43.3152 45.7766 44.4643C44.6276 45.6133 43.9209 47.1311 43.7812 48.7501Z" fill="#636363"/>
<path d="M50.6248 49.8937H9.37485C9.30027 49.8963 9.22596 49.8836 9.15653 49.8562C9.0871 49.8289 9.02404 49.7875 8.97127 49.7348C8.91851 49.682 8.87717 49.619 8.84983 49.5495C8.82249 49.4801 8.80973 49.4058 8.81235 49.3312V28.575C8.81235 28.5011 8.8269 28.4279 8.85516 28.3597C8.88343 28.2914 8.92487 28.2294 8.9771 28.1772C9.02933 28.125 9.09134 28.0835 9.15959 28.0553C9.22783 28.027 9.30098 28.0125 9.37485 28.0125H50.6248C50.6987 28.0125 50.7719 28.027 50.8401 28.0553C50.9084 28.0835 50.9704 28.125 51.0226 28.1772C51.0748 28.2294 51.1163 28.2914 51.1445 28.3597C51.1728 28.4279 51.1873 28.5011 51.1873 28.575V49.3312C51.19 49.4058 51.1772 49.4801 51.1499 49.5495C51.1225 49.619 51.0812 49.682 51.0284 49.7348C50.9757 49.7875 50.9126 49.8289 50.8432 49.8562C50.7737 49.8836 50.6994 49.8963 50.6248 49.8937ZM9.93735 48.75H50.0624V29.1375H9.93735V48.75Z" fill="#636363"/>
<path d="M32.7938 34.3501H27.2063V35.4751H32.7938V34.3501Z" fill="#636363"/>
<path d="M32.7938 36.6001H27.2063V37.7251H32.7938V36.6001Z" fill="#636363"/>
<path d="M30.6562 44.1938L27.2812 39.6563C27.2215 39.5712 27.1895 39.4697 27.1895 39.3657C27.1895 39.2617 27.2215 39.1603 27.2812 39.0751C27.3265 38.9847 27.3961 38.9088 27.4823 38.8558C27.5684 38.8028 27.6676 38.7748 27.7687 38.7751H28.9312C29.3688 38.7751 29.7885 38.6013 30.0979 38.2918C30.4073 37.9824 30.5812 37.5627 30.5812 37.1251C30.5812 36.6875 30.4073 36.2678 30.0979 35.9584C29.7885 35.6489 29.3688 35.4751 28.9312 35.4751H27.2437V34.3501H28.9312C29.6771 34.3501 30.3925 34.6464 30.9199 35.1739C31.4474 35.7013 31.7437 36.4167 31.7437 37.1626C31.7437 37.9085 31.4474 38.6239 30.9199 39.1513C30.3925 39.6788 29.6771 39.9751 28.9312 39.9751L31.6312 43.6126L30.6562 44.1938Z" fill="#636363"/>
<path d="M32.4374 25.65H25.3687C25.221 25.6453 25.0806 25.5845 24.9761 25.48C24.8716 25.3755 24.8108 25.2352 24.8062 25.0875V16.3875C24.8062 16.3136 24.8207 16.2404 24.849 16.1722C24.8772 16.1039 24.9187 16.0419 24.9709 15.9897C25.0231 15.9375 25.0851 15.896 25.1534 15.8678C25.2216 15.8395 25.2948 15.825 25.3687 15.825H32.4374C32.5113 15.825 32.5844 15.8395 32.6527 15.8678C32.7209 15.896 32.7829 15.9375 32.8352 15.9897C32.8874 16.0419 32.9288 16.1039 32.9571 16.1722C32.9854 16.2404 32.9999 16.3136 32.9999 16.3875V25.0875C32.9952 25.2352 32.9344 25.3755 32.83 25.48C32.7255 25.5845 32.5851 25.6453 32.4374 25.65ZM25.9312 24.525H31.8749V16.875H25.9312V24.525Z" fill="#636363"/>
<path d="M20.2125 25.65H13.125C12.9758 25.65 12.8327 25.5907 12.7273 25.4852C12.6218 25.3797 12.5625 25.2366 12.5625 25.0875V20.1375C12.5625 20.0636 12.577 19.9904 12.6053 19.9222C12.6336 19.8539 12.675 19.7919 12.7273 19.7397C12.7795 19.6875 12.8415 19.646 12.9097 19.6178C12.978 19.5895 13.0511 19.575 13.125 19.575H20.175C20.3227 19.5796 20.4631 19.6404 20.5676 19.7449C20.672 19.8494 20.7328 19.9898 20.7375 20.1375V25.0875C20.7336 25.2291 20.6781 25.3644 20.5814 25.468C20.4847 25.5716 20.3535 25.6363 20.2125 25.65ZM13.7063 24.525H19.65V20.625H13.7063V24.525Z" fill="#636363"/>
<path d="M44.6624 25.65H37.5937C37.446 25.6453 37.3056 25.5845 37.2011 25.4801C37.0966 25.3756 37.0359 25.2352 37.0312 25.0875V13.2375H35.3437C35.2353 13.2381 35.1291 13.2063 35.0389 13.1462C34.9487 13.0861 34.8785 13.0003 34.8374 12.9C34.7924 12.7987 34.7773 12.6866 34.7939 12.5769C34.8105 12.4673 34.8581 12.3647 34.9312 12.2813L40.7062 6.05625C40.7604 6.00237 40.8248 5.95973 40.8956 5.93077C40.9664 5.90181 41.0422 5.88711 41.1187 5.8875C41.1975 5.88303 41.2762 5.89776 41.348 5.93042C41.4199 5.96307 41.4827 6.01269 41.5312 6.075L47.2687 12.2813C47.3395 12.3651 47.3851 12.4672 47.4003 12.5759C47.4155 12.6846 47.3997 12.7953 47.3545 12.8953C47.3094 12.9954 47.2369 13.0806 47.1454 13.1411C47.0539 13.2017 46.9471 13.2351 46.8374 13.2375H45.2249V25.0875C45.2202 25.2352 45.1595 25.3756 45.055 25.4801C44.9505 25.5845 44.8101 25.6453 44.6624 25.65ZM38.1562 24.525H44.0999V12.675C44.0973 12.6004 44.1101 12.5261 44.1374 12.4567C44.1647 12.3873 44.2061 12.3242 44.2588 12.2714C44.3116 12.2187 44.3747 12.1773 44.4441 12.15C44.5135 12.1226 44.5878 12.1099 44.6624 12.1125H45.5624L41.1187 7.275L36.6374 12.1125H37.5937C37.6682 12.1099 37.7426 12.1226 37.812 12.15C37.8814 12.1773 37.9445 12.2187 37.9972 12.2714C38.05 12.3242 38.0913 12.3873 38.1187 12.4567C38.146 12.5261 38.1588 12.6004 38.1562 12.675V24.525Z" fill="#636363"/>
</svg>
