<svg width="60" height="60" viewBox="0 0 60 60" fill="none" xmlns="http://www.w3.org/2000/svg">
<path d="M13.2563 39.5063V49.9688L27.4688 55.0689L30.3563 56.3064L33.2438 55.5001L38.6251 52.3126L50.9626 44.8313L52.1063 42.5063L51.2626 40.1813L49.0501 39.5063L44.7938 41.2688L34.9126 46.5376L34.3876 44.1376L32.4001 42.8814L26.3063 42.8251L23.6813 40.3688L20.5313 39.5251L13.2563 39.5063Z" fill="white"/>
<path d="M13.1437 36.0562H10.2V54.7499H13.1437V36.0562Z" fill="#62E2BB"/>
<path d="M31.875 49.3313H26.025V48.2063H31.875C32.5115 48.2063 33.1219 47.9535 33.572 47.5034C34.0221 47.0533 34.275 46.4429 34.275 45.8063C34.275 45.1698 34.0221 44.5594 33.572 44.1093C33.1219 43.6592 32.5115 43.4063 31.875 43.4063H26.25C26.1806 43.4073 26.1118 43.3946 26.0474 43.3689C25.9831 43.3431 25.9245 43.3049 25.875 43.2563L24 41.6063C22.9202 40.6166 21.5084 40.068 20.0437 40.0688H13.6687V38.9438H20.0812C21.8302 38.9532 23.5111 39.6229 24.7875 40.8188L26.4375 42.3188H31.875C32.3379 42.3188 32.7962 42.41 33.2239 42.5872C33.6516 42.7643 34.0402 43.024 34.3675 43.3513C34.6948 43.6786 34.9545 44.0672 35.1316 44.4949C35.3088 44.9226 35.3999 45.3809 35.3999 45.8438C35.3999 46.3068 35.3088 46.7651 35.1316 47.1928C34.9545 47.6205 34.6948 48.0091 34.3675 48.3364C34.0402 48.6637 33.6516 48.9234 33.2239 49.1005C32.7962 49.2777 32.3379 49.3688 31.875 49.3688V49.3313Z" fill="#636363"/>
<path d="M30.975 56.5312C30.2518 56.5361 29.5338 56.4091 28.8562 56.1562L13.125 50.4937L13.5 49.425L29.2875 55.05C30.0076 55.3111 30.7771 55.4079 31.5395 55.3333C32.3019 55.2587 33.0379 55.0145 33.6937 54.6187L50.4187 44.5312C50.9413 44.2144 51.3246 43.7115 51.4915 43.1237C51.6585 42.5359 51.5968 41.9066 51.3187 41.3624C51.022 40.785 50.5102 40.3473 49.8937 40.1437C49.5846 40.0479 49.2593 40.0151 48.9372 40.0474C48.6152 40.0796 48.3028 40.1761 48.0187 40.3312L34.6875 47.6062L34.1437 46.6312L47.4188 39.3749C48.2664 38.9255 49.2578 38.8311 50.175 39.1125C50.6281 39.2503 51.0482 39.4794 51.4093 39.7858C51.7705 40.0921 52.0651 40.4692 52.275 40.8937C52.6779 41.6913 52.7645 42.6116 52.5177 43.4704C52.2708 44.3292 51.7087 45.063 50.9437 45.525L34.2187 55.6124C33.2426 56.2112 32.1202 56.5291 30.975 56.5312Z" fill="#636363"/>
<path d="M13.125 55.2937H4.76245V54.1687H12.6V36.6187H4.76245V35.4937H13.125C13.198 35.4936 13.2702 35.5083 13.3375 35.5368C13.4047 35.5653 13.4655 35.607 13.5162 35.6595C13.567 35.712 13.6066 35.7742 13.6328 35.8423C13.659 35.9105 13.6712 35.9832 13.6687 36.0562V54.8062C13.6547 54.9404 13.5913 55.0647 13.4908 55.1548C13.3903 55.2449 13.2599 55.2944 13.125 55.2937Z" fill="#636363"/>
<path d="M32.6814 36.6938C41.587 36.6938 48.8064 29.4744 48.8064 20.5688C48.8064 11.6633 41.587 4.44385 32.6814 4.44385C23.7758 4.44385 16.5564 11.6633 16.5564 20.5688C16.5564 29.4744 23.7758 36.6938 32.6814 36.6938Z" fill="white"/>
<path d="M32.6812 37.275C29.3738 37.2787 26.1398 36.3007 23.3888 34.4647C20.6378 32.6288 18.4936 30.0176 17.228 26.9619C15.9623 23.9063 15.6321 20.5438 16.2792 17.3003C16.9262 14.0569 18.5215 11.0785 20.8627 8.74242C23.204 6.40639 26.186 4.81786 29.4309 4.17809C32.6759 3.53832 36.0376 3.8761 39.0904 5.14864C42.1432 6.42118 44.7495 8.5712 46.5793 11.3263C48.409 14.0815 49.3798 17.3177 49.3687 20.625C49.3489 25.0413 47.5832 29.2705 44.4569 32.3897C41.3306 35.509 37.0975 37.2652 32.6812 37.275ZM32.6812 5.0063C29.5979 5.00259 26.5829 5.91373 24.0177 7.6244C21.4525 9.33506 19.4525 11.7683 18.2709 14.6162C17.0892 17.4641 16.7791 20.5985 17.3797 23.6227C17.9803 26.6469 19.4647 29.4249 21.6449 31.6051C23.8251 33.7853 26.6031 35.2697 29.6273 35.8703C32.6515 36.4709 35.7859 36.1608 38.6338 34.9791C41.4817 33.7975 43.9149 31.7975 45.6256 29.2323C47.3363 26.6671 48.2474 23.6521 48.2437 20.5688C48.2338 16.4444 46.591 12.4918 43.6746 9.57539C40.7582 6.65899 36.8056 5.0162 32.6812 5.0063Z" fill="#636363"/>
<path d="M48.75 20.625C48.745 24.9033 47.0419 29.0048 44.0149 32.0282C40.9879 35.0517 36.8845 36.75 32.6062 36.75C31.9795 36.7505 31.3533 36.7129 30.7312 36.6375C34.651 36.172 38.2639 34.2849 40.8854 31.3338C43.5069 28.3826 44.9548 24.5723 44.9548 20.625C44.9548 16.6777 43.5069 12.8674 40.8854 9.91625C38.2639 6.96507 34.651 5.07797 30.7312 4.6125C31.3533 4.5371 31.9795 4.49953 32.6062 4.5C36.8845 4.5 40.9879 6.19828 44.0149 9.22177C47.0419 12.2453 48.745 16.3467 48.75 20.625Z" fill="#62E2BB"/>
<path d="M32.6812 37.275C29.3738 37.2787 26.1398 36.3007 23.3888 34.4647C20.6378 32.6288 18.4936 30.0176 17.228 26.9619C15.9623 23.9063 15.6321 20.5438 16.2792 17.3003C16.9262 14.0569 18.5215 11.0785 20.8627 8.74242C23.204 6.40639 26.186 4.81786 29.4309 4.17809C32.6759 3.53832 36.0376 3.8761 39.0904 5.14864C42.1432 6.42118 44.7495 8.5712 46.5793 11.3263C48.409 14.0815 49.3798 17.3177 49.3687 20.625C49.3489 25.0413 47.5832 29.2705 44.4569 32.3897C41.3306 35.509 37.0975 37.2652 32.6812 37.275ZM32.6812 5.0063C29.5979 5.00259 26.5829 5.91373 24.0177 7.6244C21.4525 9.33506 19.4525 11.7683 18.2709 14.6162C17.0892 17.4641 16.7791 20.5985 17.3797 23.6227C17.9803 26.6469 19.4647 29.4249 21.6449 31.6051C23.8251 33.7853 26.6031 35.2697 29.6273 35.8703C32.6515 36.4709 35.7859 36.1608 38.6338 34.9791C41.4817 33.7975 43.9149 31.7975 45.6256 29.2323C47.3363 26.6671 48.2474 23.6521 48.2437 20.5688C48.2338 16.4444 46.591 12.4918 43.6746 9.57539C40.7582 6.65899 36.8056 5.0162 32.6812 5.0063Z" fill="#636363"/>
<path d="M37.7063 13.8562H27.6562V14.9812H37.7063V13.8562Z" fill="#636363"/>
<path d="M37.7063 17.8875H27.6562V19.0125H37.7063V17.8875Z" fill="#636363"/>
<path d="M34.2 30.8624L28.125 22.6875C28.0602 22.6058 28.0202 22.5071 28.0098 22.4034C27.9995 22.2996 28.0192 22.195 28.0666 22.1021C28.1141 22.0092 28.1872 21.932 28.2773 21.8795C28.3675 21.827 28.4708 21.8016 28.575 21.8062H30.6375C31.5426 21.8062 32.4105 21.4467 33.0505 20.8067C33.6905 20.1667 34.05 19.2988 34.05 18.3937C34.05 17.4887 33.6905 16.6207 33.0505 15.9807C32.4105 15.3407 31.5426 14.9812 30.6375 14.9812H27.6562V13.8562H30.675C31.2709 13.8562 31.8609 13.9736 32.4114 14.2016C32.9619 14.4296 33.4621 14.7639 33.8835 15.1852C34.3048 15.6066 34.6391 16.1068 34.8671 16.6573C35.0951 17.2078 35.2125 17.7978 35.2125 18.3937C35.2125 18.9896 35.0951 19.5796 34.8671 20.1301C34.6391 20.6806 34.3048 21.1809 33.8835 21.6022C33.4621 22.0235 32.9619 22.3578 32.4114 22.5858C31.8609 22.8138 31.2709 22.9312 30.675 22.9312H29.7188L35.1 30.1875L34.2 30.8624Z" fill="#636363"/>
</svg>
