<svg width="52" height="52" viewBox="0 0 52 52" fill="none" xmlns="http://www.w3.org/2000/svg">
<g clip-path="url(#clip0)">
<path d="M44.6061 38.4963H43.6311V34.7588H8.36855V38.4963H7.39355V34.2713C7.39355 34.142 7.44492 34.018 7.53634 33.9266C7.62776 33.8352 7.75176 33.7838 7.88105 33.7838H44.1186C44.2478 33.7838 44.3718 33.8352 44.4633 33.9266C44.5547 34.018 44.6061 34.142 44.6061 34.2713V38.4963Z" fill="#636363"/>
<path d="M26.5038 29.4125H25.5288V38.8212H26.5038V29.4125Z" fill="#636363"/>
<path d="M26.0165 49.2537C29.023 49.2537 31.4603 46.8165 31.4603 43.81C31.4603 40.8035 29.023 38.3662 26.0165 38.3662C23.01 38.3662 20.5728 40.8035 20.5728 43.81C20.5728 46.8165 23.01 49.2537 26.0165 49.2537Z" fill="white"/>
<path d="M31.4438 43.875C31.4318 44.7225 31.2222 45.5555 30.8315 46.3077C30.4408 47.0598 29.8798 47.7104 29.1934 48.2075C28.5069 48.7046 27.7138 49.0346 26.8773 49.1711C26.0407 49.3076 25.1839 49.2469 24.375 48.9938C25.4792 48.6457 26.4437 47.9546 27.1283 47.0209C27.8129 46.0873 28.182 44.9597 28.182 43.8019C28.182 42.6441 27.8129 41.5165 27.1283 40.5829C26.4437 39.6492 25.4792 38.9581 24.375 38.61C25.1957 38.3533 26.0655 38.2946 26.9133 38.4388C27.761 38.583 28.5626 38.926 29.2522 39.4396C29.9419 39.9533 30.5 40.623 30.8809 41.394C31.2619 42.1649 31.4547 43.0152 31.4438 43.875Z" fill="#62E2BB"/>
<path d="M44.0863 49.2537C47.0928 49.2537 49.5301 46.8165 49.5301 43.81C49.5301 40.8035 47.0928 38.3662 44.0863 38.3662C41.0798 38.3662 38.6426 40.8035 38.6426 43.81C38.6426 46.8165 41.0798 49.2537 44.0863 49.2537Z" fill="white"/>
<path d="M49.5134 43.875C49.5133 44.7275 49.313 45.5681 48.9286 46.329C48.5442 47.09 47.9865 47.75 47.3003 48.2559C46.6141 48.7618 45.8187 49.0995 44.9782 49.2418C44.1376 49.3841 43.2754 49.327 42.4609 49.075C43.5651 48.7269 44.5296 48.0358 45.2142 47.1022C45.8989 46.1685 46.268 45.0409 46.268 43.8831C46.268 42.7254 45.8989 41.5978 45.2142 40.6641C44.5296 39.7304 43.5651 39.0394 42.4609 38.6913C43.2741 38.4397 44.1349 38.3824 44.9742 38.5238C45.8135 38.6652 46.608 39.0015 47.2938 39.5055C47.9796 40.0096 48.5376 40.6675 48.9231 41.4264C49.3086 42.1852 49.5108 43.0239 49.5134 43.875Z" fill="#62E2BB"/>
<path d="M7.88125 49.2537C10.8877 49.2537 13.325 46.8165 13.325 43.81C13.325 40.8035 10.8877 38.3662 7.88125 38.3662C4.87475 38.3662 2.4375 40.8035 2.4375 43.81C2.4375 46.8165 4.87475 49.2537 7.88125 49.2537Z" fill="white"/>
<path d="M13.3085 43.8751C13.2872 45.3047 12.7042 46.6686 11.6856 47.672C10.667 48.6754 9.29455 49.2377 7.86475 49.2376C7.31372 49.2411 6.7655 49.1588 6.23975 48.9938C7.34395 48.6457 8.30841 47.9546 8.99303 47.021C9.67766 46.0873 10.0468 44.9597 10.0468 43.8019C10.0468 42.6442 9.67766 41.5166 8.99303 40.5829C8.30841 39.6492 7.34395 38.9582 6.23975 38.6101C6.7655 38.4451 7.31372 38.3628 7.86475 38.3663C8.58575 38.3641 9.29997 38.5055 9.96571 38.7824C10.6314 39.0592 11.2353 39.466 11.7421 39.9788C12.2489 40.4917 12.6485 41.1003 12.9174 41.7693C13.1863 42.4383 13.3193 43.1541 13.3085 43.8751Z" fill="#62E2BB"/>
<path d="M7.88139 39.3413C8.76243 39.3414 9.6238 39.6019 10.3572 40.0901C11.0906 40.5784 11.6633 41.2725 12.0034 42.0853C12.3434 42.898 12.4357 43.7932 12.2684 44.6582C12.1012 45.5233 11.682 46.3196 11.0635 46.947C10.4451 47.5745 9.65489 48.0052 8.79236 48.1849C7.92983 48.3646 7.03343 48.2853 6.21583 47.957C5.39823 47.6287 4.69591 47.0661 4.19715 46.3398C3.69839 45.6135 3.42545 44.756 3.41264 43.875C3.41264 42.6899 3.88345 41.5532 4.72151 40.7152C5.55956 39.8771 6.6962 39.4063 7.88139 39.4063V39.3413ZM7.88139 38.4313C6.80403 38.4281 5.74994 38.7446 4.85259 39.3408C3.95523 39.937 3.25497 40.7861 2.84045 41.7805C2.42593 42.775 2.31581 43.87 2.52402 44.9271C2.73223 45.9841 3.24941 46.9556 4.01008 47.7186C4.77075 48.4815 5.7407 49.0016 6.79712 49.213C7.85355 49.4243 8.94894 49.3175 9.9446 48.906C10.9403 48.4944 11.7914 47.7967 12.3903 46.9011C12.9892 46.0055 13.3089 44.9524 13.3089 43.875C13.3089 42.4341 12.7376 41.0519 11.7202 40.0315C10.7028 39.011 9.32234 38.4356 7.88139 38.4313Z" fill="#636363"/>
<path d="M25.9999 39.3412C26.8816 39.3381 27.7445 39.5959 28.4801 40.0822C29.2156 40.5684 29.7909 41.2614 30.1334 42.0739C30.4759 42.8864 30.5705 43.7821 30.4051 44.6482C30.2397 45.5142 29.8218 46.312 29.204 46.9411C28.5861 47.5702 27.796 48.0025 26.9331 48.1835C26.0701 48.3645 25.1729 48.2862 24.3543 47.9584C23.5358 47.6306 22.8325 47.068 22.333 46.3414C21.8336 45.6148 21.5602 44.7566 21.5474 43.875C21.5388 43.2841 21.6475 42.6973 21.8672 42.1487C22.0869 41.6 22.4132 41.1004 22.8273 40.6788C23.2414 40.2571 23.735 39.9218 24.2796 39.6922C24.8242 39.4626 25.4089 39.3433 25.9999 39.3412ZM25.9999 38.3662C24.9267 38.3695 23.8784 38.6899 22.9868 39.2872C22.0952 39.8845 21.4 40.732 20.9886 41.7232C20.5772 42.7145 20.468 43.8052 20.6746 44.8583C20.8813 45.9114 21.3946 46.8799 22.1501 47.6421C22.9056 48.4044 23.8695 48.9263 24.9208 49.1423C25.972 49.3583 27.0636 49.2588 28.0585 48.8562C29.0533 48.4537 29.9069 47.766 30.5121 46.8798C31.1173 45.9935 31.4471 44.9481 31.4599 43.875C31.4685 43.1533 31.3335 42.4371 31.0628 41.768C30.792 41.099 30.391 40.4904 29.8829 39.9778C29.3748 39.4652 28.7699 39.0587 28.1032 38.782C27.4366 38.5054 26.7216 38.364 25.9999 38.3662Z" fill="#636363"/>
<path d="M44.1186 39.3413C45.0003 39.3382 45.8632 39.596 46.5988 40.0822C47.3343 40.5685 47.9096 41.2615 48.2521 42.074C48.5946 42.8864 48.6892 43.7821 48.5238 44.6482C48.3584 45.5143 47.9405 46.3121 47.3227 46.9412C46.7048 47.5703 45.9147 48.0025 45.0518 48.1836C44.1888 48.3646 43.2916 48.2863 42.473 47.9585C41.6545 47.6307 40.9512 47.0681 40.4517 46.3414C39.9523 45.6148 39.6789 44.7567 39.6661 43.875C39.666 42.6926 40.1346 41.5585 40.9692 40.7209C41.8037 39.8833 42.9362 39.4106 44.1186 39.4063V39.3413ZM44.1186 38.4313C43.0419 38.4313 41.9894 38.7505 41.0942 39.3487C40.199 39.9469 39.5012 40.7971 39.0892 41.7918C38.6772 42.7865 38.5694 43.8811 38.7794 44.937C38.9895 45.993 39.5079 46.963 40.2692 47.7243C41.0306 48.4857 42.0005 49.0041 43.0565 49.2142C44.1125 49.4242 45.2071 49.3164 46.2018 48.9044C47.1965 48.4924 48.0467 47.7946 48.6449 46.8994C49.243 46.0042 49.5623 44.9517 49.5623 43.875C49.5623 42.4313 48.9888 41.0466 47.9679 40.0257C46.947 39.0048 45.5623 38.4313 44.1186 38.4313Z" fill="#636363"/>
<path d="M26.0159 30.2412C33.5367 30.2412 39.6334 24.1445 39.6334 16.6237C39.6334 9.10299 33.5367 3.00623 26.0159 3.00623C18.4952 3.00623 12.3984 9.10299 12.3984 16.6237C12.3984 24.1445 18.4952 30.2412 26.0159 30.2412Z" fill="white"/>
<path d="M39.6338 16.6237C39.6338 18.4134 39.281 20.1855 38.5956 21.8387C37.9103 23.4919 36.9058 24.9938 35.6395 26.2585C34.3733 27.5232 32.8702 28.5259 31.2162 29.2093C29.5622 29.8927 27.7896 30.2434 26 30.2412C25.48 30.2412 24.9763 30.2412 24.375 30.16C27.6949 29.7777 30.7584 28.188 32.9822 25.6935C35.206 23.1989 36.4349 19.9737 36.4349 16.6318C36.4349 13.29 35.206 10.0648 32.9822 7.57024C30.7584 5.07569 27.6949 3.48598 24.375 3.10372C24.9139 3.03538 25.4568 3.00281 26 3.00622C27.7896 3.00409 29.5622 3.35474 31.2162 4.03813C32.8702 4.72151 34.3733 5.72423 35.6395 6.98895C36.9058 8.25366 37.9103 9.75557 38.5956 11.4088C39.281 13.062 39.6338 14.8341 39.6338 16.6237Z" fill="#62E2BB"/>
<path d="M29.9166 10.7738H22.1328V11.7488H29.9166V10.7738Z" fill="#636363"/>
<path d="M29.9166 13.8938H22.1328V14.8688H29.9166V13.8938Z" fill="#636363"/>
<path d="M27.1541 24.0176L22.4741 17.6963C22.4264 17.6209 22.4011 17.5336 22.4011 17.4444C22.4011 17.3553 22.4264 17.2679 22.4741 17.1926C22.5153 17.1111 22.5779 17.0423 22.6552 16.9936C22.7325 16.945 22.8215 16.9183 22.9128 16.9163H24.5378C25.2231 16.9163 25.8803 16.6441 26.3648 16.1595C26.8493 15.675 27.1216 15.0178 27.1216 14.3326C27.1216 13.6473 26.8493 12.9901 26.3648 12.5056C25.8803 12.021 25.2231 11.7488 24.5378 11.7488H22.1328V10.7738H24.4728C25.4167 10.7738 26.3218 11.1487 26.9892 11.8161C27.6566 12.4835 28.0316 13.3887 28.0316 14.3326C28.0316 15.2764 27.6566 16.1816 26.9892 16.849C26.3218 17.5164 25.4167 17.8913 24.4728 17.8913H23.8391L27.9341 23.4488L27.1541 24.0176Z" fill="#636363"/>
<path d="M26 30.7288C23.2103 30.7288 20.4833 29.9016 18.1637 28.3517C15.8442 26.8018 14.0363 24.5989 12.9687 22.0216C11.9011 19.4442 11.6218 16.6082 12.166 13.8721C12.7103 11.136 14.0537 8.62268 16.0263 6.65006C17.9989 4.67744 20.5122 3.33407 23.2483 2.78983C25.9844 2.24558 28.8204 2.52491 31.3978 3.59248C33.9751 4.66006 36.178 6.46793 37.7279 8.78749C39.2778 11.107 40.105 13.8341 40.105 16.6238C40.105 20.3647 38.619 23.9523 35.9738 26.5975C33.3286 29.2427 29.7409 30.7288 26 30.7288ZM26 3.49381C23.4032 3.49381 20.8646 4.26387 18.7054 5.70661C16.5462 7.14935 14.8633 9.19998 13.8695 11.5992C12.8757 13.9984 12.6157 16.6384 13.1223 19.1853C13.6289 21.7323 14.8795 24.0719 16.7157 25.9081C18.552 27.7444 20.8915 28.9949 23.4385 29.5015C25.9855 30.0081 28.6255 29.7481 31.0247 28.7543C33.4239 27.7606 35.4745 26.0777 36.9172 23.9184C38.36 21.7592 39.13 19.2207 39.13 16.6238C39.1257 13.1428 37.741 9.80566 35.2796 7.34424C32.8182 4.88282 29.481 3.49811 26 3.49381Z" fill="#636363"/>
</g>
<defs>
<clipPath id="clip0">
<rect width="52" height="52" fill="white"/>
</clipPath>
</defs>
</svg>
