<svg width="60" height="60" viewBox="0 0 60 60" fill="none" xmlns="http://www.w3.org/2000/svg">
<path d="M41.4939 57.9749C41.4505 57.9753 41.408 57.9631 41.3714 57.9398C41.3348 57.9165 41.3057 57.8831 41.2876 57.8437L32.9626 42.1124L35.6251 38.5499L39.9751 39.0749H40.6689C41.0333 39.0716 41.3968 39.0403 41.7564 38.9812C43.0607 38.7398 44.2515 38.0819 45.1501 37.1062L52.8376 51.6187C52.8557 51.6501 52.8653 51.6856 52.8653 51.7218C52.8653 51.758 52.8557 51.7936 52.8376 51.8249C52.817 51.8609 52.7868 51.8904 52.7504 51.9103C52.714 51.9301 52.6728 51.9395 52.6314 51.9375L46.0314 51.2249C45.7671 51.2038 45.5024 51.2599 45.2694 51.3864C45.0364 51.5129 44.8452 51.7043 44.7189 51.9375L41.6251 57.7687C41.6255 57.8121 41.6133 57.8546 41.59 57.8912C41.5667 57.9278 41.5333 57.9569 41.4939 57.9749Z" fill="white"/>
<path d="M44.9999 38.1L52.1249 51.375L46.1999 50.7375H45.9937C45.6442 50.7351 45.3011 50.8303 45.0029 51.0126C44.7047 51.1948 44.4634 51.4567 44.3062 51.7688L41.4937 57.0563L33.6374 42.1875L35.9624 39.1688L40.0124 39.6563H40.7437C41.1401 39.6578 41.5358 39.6201 41.9249 39.5438C43.056 39.3317 44.1143 38.8348 44.9999 38.1ZM45.2437 36.225C44.7263 36.958 44.041 37.5566 43.2452 37.9709C42.4493 38.3851 41.5659 38.603 40.6687 38.6063H40.0499L35.3812 38.0438L32.5124 41.7938C32.4227 41.9208 32.3223 42.04 32.2124 42.15L40.7999 58.125C40.8624 58.256 40.9608 58.3666 41.0835 58.444C41.2063 58.5215 41.3485 58.5626 41.4937 58.5626C41.6388 58.5626 41.781 58.5215 41.9038 58.444C42.0265 58.3666 42.1249 58.256 42.1874 58.125L45.2999 52.2938C45.365 52.1653 45.4642 52.0572 45.5865 51.9811C45.7088 51.9051 45.8496 51.8641 45.9937 51.8625L52.5562 52.5938C52.6916 52.5955 52.8253 52.5623 52.9442 52.4973C53.063 52.4323 53.1631 52.3377 53.2348 52.2227C53.3064 52.1077 53.3472 51.9762 53.3531 51.8408C53.3591 51.7054 53.33 51.5708 53.2687 51.45L45.1687 36.1875L45.2437 36.225Z" fill="#636363"/>
<path d="M52.6314 52.5L50.3252 52.2563V52.1625L42.8252 38.0812C43.8239 37.6701 44.6831 36.9801 45.3002 36.0938L53.4002 51.3562C53.4644 51.4814 53.4938 51.6215 53.4855 51.7619C53.4772 51.9024 53.4314 52.038 53.353 52.1547C53.2745 52.2715 53.1662 52.3651 53.0393 52.4258C52.9124 52.4865 52.7716 52.5121 52.6314 52.5Z" fill="#62E2BB"/>
<path d="M18.5063 57.9939C18.4629 57.9942 18.4204 57.982 18.3838 57.9587C18.3472 57.9354 18.3181 57.9021 18.3 57.8626L15.2063 52.0314C15.0962 51.8083 14.9249 51.6211 14.7124 51.4916C14.4999 51.3622 14.2551 51.2958 14.0063 51.3001L7.31255 52.0314C7.26811 52.0372 7.22295 52.0296 7.18286 52.0095C7.14277 51.9895 7.10958 51.9579 7.08755 51.9189C7.06321 51.8864 7.05005 51.847 7.05005 51.8064C7.05005 51.7658 7.06321 51.7263 7.08755 51.6939L14.775 37.1814C15.6751 38.165 16.8747 38.8241 18.1875 39.0564C18.5408 39.1155 18.8981 39.1468 19.2563 39.1501H19.95L24.375 38.5501L27.1125 42.1314L18.75 57.8626C18.7299 57.9086 18.6949 57.9464 18.6507 57.9702C18.6066 57.994 18.5557 58.0023 18.5063 57.9939Z" fill="white"/>
<path d="M15 38.1001C15.9049 38.8533 16.9907 39.3574 18.15 39.5626C18.5396 39.6355 18.9349 39.6731 19.3312 39.6751H20.0812L24.1125 39.1876L26.4375 42.2251L18.5062 57.0376L15.7125 51.7876C15.5565 51.4691 15.3134 51.2015 15.0114 51.0156C14.7094 50.8298 14.3608 50.7334 14.0062 50.7376H13.8L7.87499 51.3751L15 38.1001ZM14.7562 36.2251L6.58124 51.4313C6.51541 51.5528 6.48269 51.6894 6.48636 51.8275C6.49003 51.9656 6.52997 52.1003 6.60216 52.2181C6.67435 52.3359 6.77626 52.4326 6.89765 52.4986C7.01904 52.5645 7.15564 52.5974 7.29374 52.5938L13.8562 51.8626C14.0017 51.8573 14.1454 51.8955 14.2689 51.9723C14.3925 52.0491 14.4904 52.1611 14.55 52.2938L17.8125 58.1251C17.8741 58.2563 17.9724 58.3669 18.0955 58.4435C18.2186 58.52 18.3613 58.5592 18.5062 58.5563C18.6503 58.5548 18.7911 58.5137 18.9134 58.4377C19.0357 58.3617 19.1348 58.2535 19.2 58.1251L27.7125 42.0563C27.6026 41.9463 27.5022 41.8272 27.4125 41.7001L24.5437 37.9501L19.875 38.5126H19.2562C18.9318 38.5404 18.6056 38.5404 18.2812 38.5126C16.8275 38.2523 15.5344 37.4306 14.6812 36.2251H14.7562Z" fill="#636363"/>
<path d="M27.6937 42.0562L19.1999 58.125C19.1343 58.2551 19.0338 58.3645 18.9096 58.4409C18.7855 58.5173 18.6426 58.5578 18.4968 58.5578C18.351 58.5578 18.2081 58.5173 18.0839 58.4409C17.9598 58.3645 17.8593 58.2551 17.7937 58.125L16.6499 55.9687C16.6578 55.938 16.6578 55.9057 16.6499 55.8749L25.1437 39.8062C25.0312 39.6937 24.9374 39.5625 24.8437 39.45L23.7749 38.0437H24.4687L27.3374 41.7937C27.4454 41.895 27.565 41.9831 27.6937 42.0562Z" fill="#62E2BB"/>
<path d="M44.9999 38.1L52.1249 51.375L46.1999 50.7375H45.9937C45.6442 50.7351 45.3011 50.8303 45.0029 51.0126C44.7047 51.1948 44.4634 51.4567 44.3062 51.7688L41.4937 57.0563L33.6374 42.1875L35.9624 39.1688L40.0124 39.6563H40.7437C41.1401 39.6578 41.5358 39.6201 41.9249 39.5438C43.056 39.3317 44.1143 38.8348 44.9999 38.1ZM45.2437 36.225C44.7263 36.958 44.041 37.5566 43.2452 37.9709C42.4493 38.3851 41.5659 38.603 40.6687 38.6063H40.0499L35.3812 38.0438L32.5124 41.7938C32.4227 41.9208 32.3223 42.04 32.2124 42.15L40.7999 58.125C40.8624 58.256 40.9608 58.3666 41.0835 58.444C41.2063 58.5215 41.3485 58.5626 41.4937 58.5626C41.6388 58.5626 41.781 58.5215 41.9038 58.444C42.0265 58.3666 42.1249 58.256 42.1874 58.125L45.2999 52.2938C45.365 52.1653 45.4642 52.0572 45.5865 51.9811C45.7088 51.9051 45.8496 51.8641 45.9937 51.8625L52.5562 52.5938C52.6916 52.5955 52.8253 52.5623 52.9442 52.4973C53.063 52.4323 53.1631 52.3377 53.2348 52.2227C53.3064 52.1077 53.3472 51.9762 53.3531 51.8408C53.3591 51.7054 53.33 51.5708 53.2687 51.45L45.1687 36.1875L45.2437 36.225Z" fill="#636363"/>
<path d="M15 38.1001C15.9049 38.8533 16.9907 39.3574 18.15 39.5626C18.5396 39.6355 18.9349 39.6731 19.3312 39.6751H20.0812L24.1125 39.1876L26.4375 42.2251L18.5062 57.0376L15.7125 51.7876C15.5565 51.4691 15.3134 51.2015 15.0114 51.0156C14.7094 50.8298 14.3608 50.7334 14.0062 50.7376H13.8L7.87499 51.3751L15 38.1001ZM14.7562 36.2251L6.58124 51.4313C6.51541 51.5528 6.48269 51.6894 6.48636 51.8275C6.49003 51.9656 6.52997 52.1003 6.60216 52.2181C6.67435 52.3359 6.77626 52.4326 6.89765 52.4986C7.01904 52.5645 7.15564 52.5974 7.29374 52.5938L13.8562 51.8626C14.0017 51.8573 14.1454 51.8955 14.2689 51.9723C14.3925 52.0491 14.4904 52.1611 14.55 52.2938L17.8125 58.1251C17.8741 58.2563 17.9724 58.3669 18.0955 58.4435C18.2186 58.52 18.3613 58.5592 18.5062 58.5563C18.6503 58.5548 18.7911 58.5137 18.9134 58.4377C19.0357 58.3617 19.1348 58.2535 19.2 58.1251L27.7125 42.0563C27.6026 41.9463 27.5022 41.8272 27.4125 41.7001L24.5437 37.9501L19.875 38.5126H19.2562C18.9318 38.5404 18.6056 38.5404 18.2812 38.5126C16.8275 38.2523 15.5344 37.4306 14.6812 36.2251H14.7562Z" fill="#636363"/>
<path d="M30.6187 7.20016L34.9125 5.32516C35.3946 5.12514 35.9319 5.102 36.4294 5.25983C36.9269 5.41766 37.3526 5.7463 37.6312 6.18766L40.0875 10.1627C40.4021 10.6509 40.892 10.9998 41.4562 11.1377L45.975 12.1877C46.4908 12.2953 46.95 12.5865 47.2673 13.0073C47.5846 13.428 47.7383 13.9496 47.7 14.4752L47.3625 19.1252C47.3214 19.7047 47.51 20.2772 47.8875 20.7189L50.9625 24.3752C51.2934 24.7727 51.4746 25.2736 51.4746 25.7908C51.4746 26.308 51.2934 26.8089 50.9625 27.2064L47.9437 30.7877C47.7569 31.0096 47.616 31.2664 47.5291 31.5432C47.4422 31.82 47.411 32.1113 47.4375 32.4002L47.85 37.0502C47.8954 37.5709 47.7517 38.0907 47.4453 38.5142C47.1388 38.9377 46.6901 39.2367 46.1812 39.3564L41.6625 40.4814C41.3821 40.5475 41.118 40.6697 40.886 40.8404C40.654 41.0112 40.4589 41.2271 40.3125 41.4752L37.9312 45.3752C37.6644 45.8245 37.2447 46.1628 36.7488 46.3281C36.253 46.4933 35.7143 46.4746 35.2312 46.2752L30.9 44.5127C30.358 44.2976 29.7544 44.2976 29.2125 44.5127L24.9187 46.3877C24.4361 46.5839 23.9001 46.6051 23.4035 46.4476C22.907 46.29 22.4812 45.9637 22.2 45.5252L19.725 41.5502C19.5737 41.3043 19.3746 41.0913 19.1395 40.9238C18.9044 40.7563 18.638 40.6378 18.3562 40.5752L13.8375 39.5252C13.3251 39.4136 12.8702 39.1207 12.5567 38.7004C12.2432 38.28 12.0921 37.7606 12.1312 37.2377L12.4687 32.5877C12.4896 32.2991 12.4523 32.0093 12.3588 31.7355C12.2654 31.4617 12.1179 31.2095 11.925 30.9939L8.86871 27.4502C8.53429 27.0543 8.35083 26.5528 8.35083 26.0345C8.35083 25.5163 8.53429 25.0148 8.86871 24.6189L11.8687 21.0564C12.0607 20.8339 12.2047 20.5742 12.2918 20.2935C12.379 20.0129 12.4072 19.7173 12.375 19.4252L11.9437 14.7752C11.8991 14.2518 12.0454 13.7299 12.3556 13.306C12.6657 12.8821 13.1189 12.5847 13.6312 12.4689L18.1312 11.3439C18.4116 11.2778 18.6757 11.1557 18.9077 10.9849C19.1397 10.8141 19.3348 10.5982 19.4812 10.3502L21.8812 6.35641C22.1514 5.90558 22.5745 5.56675 23.0735 5.40157C23.5724 5.23639 24.1141 5.25585 24.6 5.45641L28.9125 7.21891C29.463 7.42914 30.0729 7.42243 30.6187 7.20016Z" fill="white"/>
<path d="M24.0561 47.0999C23.5877 47.1012 23.1267 46.9831 22.7166 46.7567C22.3066 46.5303 21.9609 46.2032 21.7124 45.8062L19.2561 41.8312C19.1453 41.6474 18.9985 41.4879 18.8245 41.3622C18.6505 41.2366 18.4529 41.1474 18.2436 41.0999L13.7061 40.0499C13.065 39.9077 12.4963 39.5396 12.1039 39.013C11.7115 38.4864 11.5216 37.8362 11.5686 37.1812L11.9061 32.5124C11.9284 32.0831 11.7878 31.6613 11.5124 31.3312L8.43739 27.8062C8.01003 27.3148 7.77466 26.6855 7.77466 26.0343C7.77466 25.3831 8.01003 24.7538 8.43739 24.2624L11.4186 20.6249C11.564 20.4594 11.674 20.2659 11.7417 20.0563C11.8094 19.8467 11.8335 19.6254 11.8124 19.4062L11.3811 14.8312C11.3231 14.1702 11.5055 13.5106 11.8947 12.9733C12.2839 12.436 12.8538 12.0571 13.4999 11.9062L17.9999 10.7999C18.2062 10.7512 18.4006 10.6613 18.5714 10.5356C18.7421 10.41 18.8857 10.2512 18.9936 10.0687L21.4124 6.05616C21.7493 5.49299 22.2773 5.06959 22.9002 4.8631C23.5232 4.6566 24.1995 4.68076 24.8061 4.93116L29.1186 6.69366C29.5269 6.86242 29.9854 6.86242 30.3936 6.69366L34.6874 4.81866C35.292 4.55978 35.9695 4.52721 36.5962 4.7269C37.2228 4.92659 37.7566 5.34521 38.0999 5.90616L40.5749 9.86241C40.684 10.0476 40.8303 10.2082 41.0046 10.3341C41.1788 10.4599 41.3773 10.5483 41.5874 10.5937L46.1061 11.6437C46.7492 11.7823 47.3202 12.1494 47.7132 12.6769C48.1063 13.2044 48.2947 13.8566 48.2436 14.5124L47.9249 19.1812C47.9089 19.3943 47.9356 19.6085 48.0032 19.8113C48.0707 20.0141 48.178 20.2014 48.3186 20.3624L51.3749 23.8874C51.7986 24.3805 52.0316 25.0091 52.0316 25.6593C52.0316 26.3094 51.7986 26.9381 51.3749 27.4312L48.3561 31.0312C48.217 31.1925 48.112 31.3803 48.0476 31.5834C47.9831 31.7864 47.9605 32.0004 47.9811 32.2124L48.3936 36.8624C48.4525 37.5208 48.2728 38.1783 47.8873 38.7152C47.5018 39.2522 46.9362 39.6327 46.2936 39.7874L41.7749 40.8937C41.3607 40.9979 41.0039 41.2605 40.7811 41.6249L38.3811 45.6374C38.0409 46.202 37.5095 46.626 36.8834 46.8324C36.2573 47.0388 35.578 47.014 34.9686 46.7624L30.6749 44.9999C30.4759 44.9169 30.2624 44.8741 30.0468 44.8741C29.8311 44.8741 29.6176 44.9169 29.4186 44.9999L25.1249 46.8749C24.788 47.023 24.4241 47.0996 24.0561 47.0999ZM23.7561 5.84991C23.4764 5.84956 23.2014 5.92198 22.9582 6.06004C22.7149 6.19811 22.5118 6.39708 22.3686 6.63741L19.9686 10.6499C19.7801 10.9587 19.5323 11.2271 19.2394 11.4395C18.9465 11.6519 18.6145 11.8041 18.2624 11.8874L13.7624 13.0124C13.3826 13.1046 13.0479 13.3286 12.8179 13.6445C12.5878 13.9604 12.4773 14.3477 12.5061 14.7374L12.9186 19.3874C12.957 19.7506 12.9201 20.1178 12.8105 20.4662C12.7008 20.8146 12.5206 21.1367 12.2811 21.4124L9.37489 24.9937C9.12177 25.2812 8.98214 25.6512 8.98214 26.0343C8.98214 26.4174 9.12177 26.7873 9.37489 27.0749L12.4311 30.5999C12.6706 30.8725 12.8522 31.1909 12.965 31.5357C13.0778 31.8806 13.1194 32.2447 13.0874 32.6062L12.7686 37.2562C12.7374 37.647 12.8497 38.0357 13.0843 38.3498C13.319 38.6638 13.66 38.8816 14.0436 38.9624L18.5624 40.0124C18.9163 40.0912 19.251 40.2395 19.5472 40.4487C19.8433 40.6579 20.0949 40.9239 20.2874 41.2312L22.7436 45.2062C22.9496 45.5366 23.2669 45.7825 23.6382 45.8994C24.0096 46.0163 24.4106 45.9966 24.7686 45.8437L29.0624 43.9687C29.3981 43.8289 29.7581 43.7569 30.1218 43.7569C30.4854 43.7569 30.8454 43.8289 31.1811 43.9687L35.5124 45.7312C35.8655 45.8778 36.2592 45.8941 36.6232 45.7774C36.9872 45.6606 37.298 45.4183 37.4999 45.0937L39.9186 41.0812C40.1009 40.7709 40.3446 40.5011 40.6347 40.2883C40.9249 40.0756 41.2555 39.9242 41.6061 39.8437L46.1061 38.7187C46.4898 38.6336 46.8291 38.4113 47.0604 38.0937C47.2918 37.7761 47.3991 37.3849 47.3624 36.9937L46.8749 32.3437C46.8156 31.6171 47.0446 30.8965 47.5124 30.3374L50.6249 26.7562C50.8757 26.4638 51.0136 26.0914 51.0136 25.7062C51.0136 25.321 50.8757 24.9485 50.6249 24.6562L47.5686 21.1312C47.3225 20.8616 47.1341 20.5446 47.0148 20.1996C46.8955 19.8546 46.8479 19.4889 46.8749 19.1249L47.2124 14.4749C47.232 14.0865 47.1153 13.7034 46.8825 13.3919C46.6497 13.0804 46.3154 12.8599 45.9374 12.7687L41.2499 11.7187C40.8986 11.6396 40.5667 11.491 40.2736 11.2817C39.9806 11.0724 39.7324 10.8066 39.5436 10.4999L37.1436 6.52491C36.9411 6.19593 36.6271 5.95061 36.2589 5.83361C35.8907 5.71661 35.4927 5.7357 35.1374 5.88741L30.8436 7.76241C30.1589 8.04371 29.3909 8.04371 28.7061 7.76241L24.3749 5.96241C24.1773 5.88732 23.9675 5.84918 23.7561 5.84991Z" fill="#636363"/>
<path d="M30.8811 16.5936L32.6436 22.0311C32.7162 22.2323 32.8484 22.4065 33.0226 22.5305C33.1969 22.6544 33.4048 22.7223 33.6186 22.7249H39.3749C39.5947 22.7233 39.8092 22.7921 39.9871 22.921C40.1651 23.05 40.2972 23.2325 40.3642 23.4418C40.4312 23.6511 40.4295 23.8764 40.3595 24.0847C40.2895 24.293 40.1547 24.4735 39.9749 24.5999L35.3249 27.9374C35.1459 28.0607 35.0123 28.2394 34.9445 28.446C34.8768 28.6526 34.8787 28.8757 34.9499 29.0811L36.7124 34.5186C36.7737 34.7234 36.7699 34.9421 36.7015 35.1446C36.6331 35.3472 36.5034 35.5234 36.3305 35.649C36.1575 35.7746 35.9498 35.8434 35.7361 35.8457C35.5223 35.8481 35.3131 35.7841 35.1374 35.6624L30.5061 32.3061C30.3322 32.1782 30.122 32.1092 29.9061 32.1092C29.6903 32.1092 29.48 32.1782 29.3061 32.3061L24.6936 35.6249C24.5179 35.7466 24.3087 35.8106 24.095 35.8082C23.8812 35.8059 23.6735 35.7371 23.5005 35.6115C23.3276 35.4859 23.1979 35.3097 23.1295 35.1071C23.0611 34.9046 23.0573 34.6859 23.1186 34.4811L24.8811 29.0436C24.9434 28.8375 24.9409 28.6173 24.8738 28.4127C24.8067 28.2081 24.6784 28.0291 24.5061 27.8999L19.8749 24.5811C19.6951 24.4547 19.5603 24.2742 19.4903 24.0659C19.4202 23.8576 19.4186 23.6324 19.4856 23.423C19.5526 23.2137 19.6847 23.0313 19.8626 22.9023C20.0406 22.7733 20.2551 22.7046 20.4749 22.7061H26.2499C26.465 22.7091 26.6755 22.6434 26.8508 22.5187C27.0261 22.3939 27.1572 22.2166 27.2249 22.0124L28.9874 16.5749C29.0621 16.3833 29.1933 16.2191 29.3636 16.1039C29.5339 15.9888 29.7352 15.9282 29.9407 15.9302C30.1463 15.9323 30.3464 15.9968 30.5143 16.1153C30.6823 16.2338 30.8103 16.4006 30.8811 16.5936Z" fill="#62E2BB"/>
<path d="M24.075 36.4312C23.7425 36.4259 23.4206 36.3142 23.1562 36.1125C22.8806 35.9221 22.6746 35.647 22.5697 35.3288C22.4648 35.0107 22.4666 34.667 22.575 34.35L24.3375 28.9125C24.367 28.8211 24.3666 28.7227 24.3362 28.6317C24.3059 28.5406 24.2472 28.4616 24.1687 28.4062L19.5562 25.0312C19.2781 24.843 19.0702 24.568 18.9651 24.2491C18.8599 23.9302 18.8634 23.5854 18.975 23.2687C19.0694 22.9455 19.2673 22.6623 19.5382 22.4624C19.8092 22.2626 20.1383 22.1572 20.475 22.1625H26.25C26.3484 22.161 26.4441 22.1298 26.5244 22.0729C26.6047 22.016 26.6659 21.9361 26.7 21.8437L28.4625 16.4062C28.5629 16.0882 28.7629 15.8108 29.033 15.615C29.3031 15.4192 29.6289 15.3153 29.9625 15.3187C30.2985 15.3143 30.6272 15.4174 30.9005 15.613C31.1737 15.8087 31.3772 16.0867 31.4812 16.4062L33.2437 21.8437C33.2744 21.9346 33.3322 22.0139 33.4093 22.0709C33.4864 22.1279 33.5791 22.1599 33.675 22.1625H39.375C39.7079 22.1664 40.0312 22.2744 40.2996 22.4715C40.5679 22.6685 40.7679 22.9446 40.8713 23.2611C40.9747 23.5775 40.9764 23.9184 40.8762 24.2359C40.776 24.5534 40.5788 24.8315 40.3125 25.0312L35.625 28.4062C35.5487 28.4634 35.4917 28.5426 35.4615 28.633C35.4314 28.7235 35.4295 28.821 35.4562 28.9125L37.2187 34.35C37.329 34.665 37.3337 35.0074 37.2322 35.3253C37.1308 35.6433 36.9286 35.9196 36.6562 36.1125C36.385 36.3134 36.0563 36.4219 35.7187 36.4219C35.3811 36.4219 35.0525 36.3134 34.7812 36.1125L30.1875 32.7562C30.1071 32.7022 30.0124 32.6734 29.9156 32.6734C29.8188 32.6734 29.7241 32.7022 29.6437 32.7562L25.0125 36.1125C24.7424 36.3168 24.4136 36.4285 24.075 36.4312ZM20.475 23.3062C20.3784 23.3061 20.2843 23.337 20.2067 23.3944C20.129 23.4518 20.0719 23.5326 20.0437 23.625C20.0096 23.7188 20.0077 23.8213 20.0383 23.9164C20.0688 24.0114 20.1301 24.0936 20.2125 24.15L24.8437 27.5062C25.1137 27.7012 25.3141 27.9776 25.4153 28.2948C25.5166 28.6121 25.5134 28.9534 25.4062 29.2687L23.6437 34.7062C23.6156 34.8006 23.6166 34.9012 23.6467 34.9949C23.6769 35.0886 23.7346 35.171 23.8125 35.2312C23.8907 35.2906 23.9862 35.3227 24.0844 35.3227C24.1825 35.3227 24.278 35.2906 24.3562 35.2312L28.9687 31.875C29.24 31.6741 29.5686 31.5656 29.9062 31.5656C30.2438 31.5656 30.5725 31.6741 30.8437 31.875L35.475 35.2312C35.5472 35.2958 35.6406 35.3315 35.7375 35.3315C35.8343 35.3315 35.9278 35.2958 36 35.2312C36.0824 35.1749 36.1436 35.0927 36.1742 34.9976C36.2047 34.9026 36.2028 34.8001 36.1687 34.7062L34.4062 29.2875C34.2996 28.9675 34.2985 28.6217 34.4032 28.301C34.5078 27.9804 34.7126 27.7018 34.9875 27.5062L39.6187 24.15C39.6966 24.0898 39.7544 24.0074 39.7845 23.9136C39.8146 23.8199 39.8156 23.7193 39.7875 23.625C39.7558 23.5311 39.6952 23.4497 39.6143 23.3924C39.5335 23.3352 39.4366 23.305 39.3375 23.3062H33.6187C33.2852 23.3097 32.9593 23.2058 32.6893 23.01C32.4192 22.8142 32.2192 22.5368 32.1187 22.2187L30.3562 16.7812C30.3338 16.6976 30.2887 16.6217 30.2258 16.5622C30.1629 16.5026 30.0847 16.4616 30 16.4437C29.9027 16.4404 29.8071 16.4701 29.7288 16.5279C29.6505 16.5858 29.5941 16.6685 29.5687 16.7625L27.8062 22.2C27.6997 22.518 27.4956 22.7943 27.2229 22.9896C26.9502 23.1848 26.6229 23.2891 26.2875 23.2875L20.475 23.3062Z" fill="#636363"/>
</svg>
